<?xml version="1.0" encoding="UTF-8"?>
<svg version="1.1" xmlns="http://www.w3.org/2000/svg" width="512" height="512">
<path d="M0 0 C1.02335449 0.21962402 2.04670898 0.43924805 3.10107422 0.66552734 C46.77552357 10.24664781 86.80695152 30.63339895 119.76171875 60.9453125 C121.87039527 62.88102603 124.01786328 64.75819976 126.1875 66.625 C132.65789689 72.27685271 138.48150558 78.42187072 144 85 C144.4134668 85.48903809 144.82693359 85.97807617 145.25292969 86.48193359 C174.72527939 121.55550652 196.25388281 164.44060584 203 210 C203.17587646 211.17328857 203.35175293 212.34657715 203.53295898 213.55541992 C205.08919087 224.74979705 205.34025658 235.86377556 205.31567383 247.15454102 C205.31252192 250.16655009 205.33604702 253.17756497 205.36132812 256.18945312 C205.41810558 273.5412436 203.57183068 290.55896884 199.75 307.5 C199.53875488 308.44319092 199.32750977 309.38638184 199.10986328 310.3581543 C188.48794343 356.18948901 165.50875114 397.19822594 133 431 C132.29593018 431.73694092 132.29593018 431.73694092 131.57763672 432.48876953 C125.11951007 439.21834108 118.34624304 445.26275888 111 451 C110.38914551 451.48726563 109.77829102 451.97453125 109.14892578 452.4765625 C63.65876231 488.75253868 7.68619638 508.54470587 -50.5 508.3125 C-51.47143951 508.31034485 -52.44287903 508.3081897 -53.4437561 508.30596924 C-116.78785096 508.08058482 -175.77003085 484.95006252 -222.5390625 442.23828125 C-224.16422249 440.76015954 -225.80473906 439.29872739 -227.4609375 437.85546875 C-273.10274848 397.90088658 -302.44274589 335.1772435 -307 275 C-307.14566654 271.51648086 -307.18674063 268.03709871 -307.203125 264.55078125 C-307.20882507 263.57626511 -307.21452515 262.60174896 -307.22039795 261.59770203 C-307.22978908 259.5413011 -307.2363583 257.48488552 -307.24023438 255.4284668 C-307.2498341 252.36543491 -307.2808705 249.3031064 -307.3125 246.24023438 C-307.41084679 228.03013052 -305.649763 210.06004626 -301.4375 192.3125 C-301.18629395 191.2498291 -300.93508789 190.1871582 -300.67626953 189.09228516 C-290.79372762 149.18358764 -271.01805594 112.10159044 -243 82 C-241.91259634 80.73264774 -240.82914406 79.46189262 -239.75 78.1875 C-231.32710904 68.55576821 -222.10147245 59.84730844 -212 52 C-210.98292969 51.18917969 -209.96585937 50.37835938 -208.91796875 49.54296875 C-196.432406 39.66038972 -182.99666949 31.55272605 -169 24 C-168.37963867 23.6611377 -167.75927734 23.32227539 -167.12011719 22.97314453 C-146.7151196 11.91818947 -124.59838759 4.96223756 -102 0 C-100.99356445 -0.2259082 -99.98712891 -0.45181641 -98.95019531 -0.68457031 C-67.63601895 -7.37932526 -31.22055936 -6.89447505 0 0 Z M-205 98 C-201.0203309 110.33996002 -197.01908207 122.67282 -193 135 C-192.76325562 135.72674927 -192.52651123 136.45349854 -192.28259277 137.20227051 C-185.16421084 159.03945051 -177.67290205 180.74843747 -170.13262177 202.44281769 C-169.37602454 204.62204901 -168.62148558 206.80198307 -167.86749268 208.9821167 C-166.67221745 212.43703795 -165.47095522 215.88982039 -164.26508331 219.34105682 C-163.81488718 220.63236218 -163.36665669 221.92435464 -162.92046356 223.21704865 C-162.30447341 225.00026837 -161.68051523 226.78072972 -161.05615234 228.56103516 C-160.70596039 229.56719879 -160.35576843 230.57336243 -159.9949646 231.61001587 C-159.12391947 234.13010322 -159.12391947 234.13010322 -157 236 C-156.67 233.69 -156.34 231.38 -156 229 C-155.443125 229.37125 -154.88625 229.7425 -154.3125 230.125 C-152.01346265 231.21023344 -152.01346265 231.21023344 -149.5 230.625 C-142.63846961 226.16500525 -141.26909452 215.30981348 -139.37695312 207.86523438 C-137.21257777 199.79158354 -133.82105241 192.90720659 -128.5625 186.375 C-127.9746875 185.63894531 -127.386875 184.90289062 -126.78125 184.14453125 C-125.07289543 182.08776226 -123.32630987 180.07174567 -121.5625 178.0625 C-118.78609246 175.40988077 -118.78609246 175.40988077 -119 173 C-118.01 172.67 -117.02 172.34 -116 172 C-109.99834237 164.68547976 -108.44955264 156.04885611 -108.7109375 146.7578125 C-109.37401157 140.43172741 -112.81481496 135.38186438 -116 130 C-115.01 129.67 -114.02 129.34 -113 129 C-127.95145057 123.485329 -142.98540524 118.29455308 -158.11752319 113.30200195 C-170.02042495 109.37245119 -181.84532222 105.27101293 -193.6105957 100.94555664 C-194.67882568 100.5561792 -195.74705566 100.16680176 -196.84765625 99.765625 C-197.77586182 99.42305664 -198.70406738 99.08048828 -199.66040039 98.72753906 C-202.06909617 97.85152931 -202.06909617 97.85152931 -205 98 Z M-157 236 C-156 239 -156 239 -156 239 Z M-156 240 C-155.44894091 243.9492568 -154.61064629 247.34920174 -153 251 C-152.67 251 -152.34 251 -152 251 C-152.08708669 249.54054712 -152.19526907 248.08234132 -152.3125 246.625 C-152.37050781 245.81289062 -152.42851562 245.00078125 -152.48828125 244.1640625 C-152.82990528 241.62078662 -152.82990528 241.62078662 -156 240 Z M-104 391 C-103.54705135 392.75140143 -103.08741252 394.50107344 -102.625 396.25 C-102.36976563 397.22453125 -102.11453125 398.1990625 -101.8515625 399.203125 C-101.10401491 401.65837303 -100.22876183 403.75617405 -99 406 C-97.22598645 403.90924342 -97.22598645 403.90924342 -96 401 C-96.6657963 397.72650154 -97.50870721 394.98258558 -99 392 C-101.52733235 391.34444881 -101.52733235 391.34444881 -104 391 Z M-96 397 C-95 399 -95 399 -95 399 Z " fill="#000000" transform="translate(307,4)"/>
<path d="M0 0 C3.60284552 0.51649184 6.853798 1.59397644 10.25 2.875 C13.58969635 4.11571276 16.9263279 5.32987361 20.3125 6.4375 C24.3658959 7.77880555 28.40633998 9.15587592 32.4375 10.5625 C33.63246094 10.97628906 34.82742187 11.39007813 36.05859375 11.81640625 C39 13 39 13 41 15 C42.9475145 15.49513081 44.89663 15.98535497 46.85546875 16.43359375 C50.04431855 17.27582184 52.97194211 18.7022609 56 20 C57.43234644 20.35482535 58.87018725 20.6881486 60.3125 21 C64 22 64 22 66 25 C66.99 25 67.98 25 69 25 C69.63421875 25.16886719 70.2684375 25.33773437 70.921875 25.51171875 C73.17736408 26.04167389 74.94339505 25.96170347 77.25 25.8125 C89.23142657 25.76025541 100.78683411 30.50639465 111.85351562 34.64550781 C121.34272903 38.18369367 130.94600432 41.35389818 140.57080078 44.49853516 C146.61926638 46.48728161 152.5717215 48.56688286 158.4609375 50.98583984 C163.62202498 53.04729728 168.88450311 54.83982342 174.125 56.6875 C184.64107404 60.41415822 195.11025797 64.24603004 205.53564453 68.21948242 C206.46231934 68.57115479 207.38899414 68.92282715 208.34375 69.28515625 C209.15005859 69.59332275 209.95636719 69.90148926 210.78710938 70.21899414 C212.84354185 70.94478049 214.87606535 71.51179845 217 72 C216 75 216 75 214.26025391 76.09985352 C213.50663574 76.43944092 212.75301758 76.77902832 211.9765625 77.12890625 C211.11804688 77.52529297 210.25953125 77.92167969 209.375 78.33007812 C208.4675 78.73677734 207.56 79.14347656 206.625 79.5625 C199.71538608 82.69308661 192.95945546 86.03641382 186.26171875 89.59375 C175.00160926 95.57200194 163.59932878 101.25574969 152.1875 106.9375 C150.10862872 107.97441845 148.02985223 109.01152699 145.95117188 110.04882812 C135.96391567 115.03180017 135.96391567 115.03180017 132.17977905 116.90768433 C130.2957516 117.85179502 128.42805169 118.82835812 126.5637207 119.81079102 C124 121 124 121 121 121 C121.62971207 121.62938477 122.25942413 122.25876953 122.90821838 122.90722656 C127.09777255 127.09682075 131.28263246 131.29110405 135.46850586 135.484375 C145.12093072 145.15334134 154.77607847 154.81958501 164.43262386 164.48443604 C170.27374356 170.33071606 176.11391573 176.1779369 181.9519043 182.02734375 C187.05725148 187.14267083 192.16436552 192.25622618 197.2735911 197.3676796 C199.97343589 200.06882444 202.67240271 202.77083326 205.36924553 205.47497559 C207.90581642 208.01835831 210.44475108 210.55935756 212.98547935 213.09858704 C214.35527539 214.46878698 215.72258909 215.84146714 217.08981323 217.2142334 C221.25048245 221.36797498 225.45199084 225.27899934 230 229 C232.89341893 232.76144461 233.50454872 235.28954478 233 240 C231.27270508 242.51879883 231.27270508 242.51879883 228.70703125 245.14453125 C228.22659866 245.64362503 227.74616608 246.14271881 227.25117493 246.65693665 C226.14511487 247.80036524 225.03154071 248.9365539 223.91217041 250.06695557 C221.8013089 252.20086009 219.71355669 254.35603126 217.62646484 256.51318359 C213.53302465 260.73135509 209.40598348 264.91481708 205.2644043 269.08569336 C203.53218065 270.83465664 201.80536434 272.58899054 200.08374023 274.34838867 C197.57170295 276.91497874 195.04379755 279.46491755 192.51171875 282.01171875 C191.74599045 282.80011642 190.98026215 283.5885141 190.19132996 284.40080261 C187.24308053 287.33745952 184.74386364 289.64750483 180.96801758 291.43676758 C172.76303772 290.22933902 165.21258171 279.34169563 159.57666016 273.67431641 C158.55433196 272.65006498 157.53177285 271.62604399 156.50900269 270.60223389 C154.32286076 268.41295218 152.13827662 266.22213244 149.95491409 264.03007889 C146.50359416 260.5651584 143.04839288 257.10412562 139.59262085 253.64364624 C132.26710088 246.30706847 124.94584564 238.96624163 117.625 231.625 C109.69952943 223.67749431 101.7733165 215.7307371 93.84224164 207.78882349 C90.40506668 204.34666102 86.97034533 200.90207425 83.53747106 197.45562291 C81.40841195 195.3191254 79.27730185 193.18468296 77.14561844 191.05080414 C76.15545701 190.05876502 75.16616321 189.06585909 74.17778778 188.07204056 C72.83246122 186.71953632 71.4837835 185.37036788 70.13491821 184.02139282 C69.38022058 183.26447458 68.62552296 182.50755634 67.8479557 181.72770119 C66.10488854 179.93404364 66.10488854 179.93404364 64 179 C63.74202637 179.67901367 63.48405273 180.35802734 63.21826172 181.05761719 C61.80143715 184.47957504 60.17625591 187.7744513 58.5078125 191.078125 C58.1600174 191.77013 57.81222229 192.46213501 57.45388794 193.17510986 C52.97851957 202.0593533 48.42484071 210.90374897 43.875 219.75 C42.56680036 222.29412575 41.25887656 224.83839084 39.95196533 227.38317871 C39.11298789 229.01605541 38.27280479 230.64831328 37.43133545 232.27990723 C35.64202943 235.75707543 33.87053094 239.23709405 32.18847656 242.76757812 C31.67510742 243.83943359 31.16173828 244.91128906 30.6328125 246.015625 C30.2114502 246.92086914 29.79008789 247.82611328 29.35595703 248.75878906 C27.8465374 251.25365262 26.48675603 252.49993236 24 254 C21.125 254.43359375 21.125 254.43359375 18 254.4375 C16.96875 254.45683594 15.9375 254.47617187 14.875 254.49609375 C11.25520778 253.87148286 10.21620325 252.89175643 8 250 C6.65625 247.3359375 6.65625 247.3359375 5.5 244.375 C5.0771875 243.3128125 4.654375 242.250625 4.21875 241.15625 C3.8165625 240.1146875 3.414375 239.073125 3 238 C1.10483593 233.1185168 -0.77351058 228.35899122 -3.26953125 223.75 C-6.54836418 217.24152263 -8.70351835 210.37937258 -10.93313599 203.46325684 C-12.23240864 199.43597942 -13.55838968 195.41750032 -14.8828125 191.3984375 C-15.14774002 190.59289429 -15.41266754 189.78735107 -15.68562317 188.95739746 C-18.03218142 181.84651077 -20.51751397 174.79251536 -23.0625 167.75 C-23.86359218 165.52094505 -24.66437032 163.29177722 -25.46484375 161.0625 C-26.07175049 159.37253906 -26.07175049 159.37253906 -26.69091797 157.6484375 C-27.33891357 155.84246094 -27.33891357 155.84246094 -28 154 C-28.24228333 153.32549805 -28.48456665 152.65099609 -28.73419189 151.95605469 C-30.29558682 147.60429594 -31.84219372 143.24766849 -33.37252808 138.8848877 C-33.86774639 137.47987119 -34.36740821 136.07641165 -34.87185669 134.67468262 C-37.40290742 127.63484869 -39.4003367 121.54547647 -39 114 C-39.80239489 111.3621405 -39.80239489 111.3621405 -41 109.0625 C-43.18119055 104.10873978 -43.34666209 100.37326236 -43 95 C-42.278125 95.53625 -41.55625 96.0725 -40.8125 96.625 C-38.12352312 98.30173724 -38.12352312 98.30173724 -35.484375 97.44140625 C-32.17704255 95.5225294 -31.70052352 93.89033319 -30.4375 90.3125 C-30.02371094 89.14847656 -29.60992187 87.98445313 -29.18359375 86.78515625 C-27.98621378 82.95591139 -26.97758156 79.14069609 -26 75.25 C-23.00783819 63.63898165 -16.7423522 55.46048228 -9 46.5 C-7.99977918 45.33352264 -6.99979154 44.16684532 -6 43 C-5.39800781 42.31292969 -4.79601562 41.62585938 -4.17578125 40.91796875 C2.56332226 32.85082388 4.56550223 25.23256188 4.296875 14.76953125 C3.88569867 10.93368889 2.83449266 8.38675568 1 5 C0.4121875 3.7934375 0.4121875 3.7934375 -0.1875 2.5625 C-0.455625 2.046875 -0.72375 1.53125 -1 1 C-0.67 0.67 -0.34 0.34 0 0 Z " fill="#F6F6F6" transform="translate(193,136)"/>
<path d="M0 0 C0.33 0 0.66 0 1 0 C1.0270203 2.75006608 1.04684883 5.49986546 1.0625 8.25 C1.07087891 9.02730469 1.07925781 9.80460938 1.08789062 10.60546875 C1.09272461 11.73662109 1.09272461 11.73662109 1.09765625 12.890625 C1.10551147 13.92751465 1.10551147 13.92751465 1.11352539 14.98535156 C0.99407772 17.10509815 0.54346032 18.95225402 0 21 C-0.17479674 22.99767702 -0.31729963 24.99829592 -0.4375 27 C-0.73159233 31.22465967 -1.18611417 35.28366788 -2 39.4375 C-4.1343224 51.67319558 -5.60450632 65.1452497 -1.76953125 77.10546875 C-0.22386429 82.9193734 -0.23719429 89.01288884 0 95 C-2.38315326 91.42527011 -3.64321602 87.70294018 -5.0390625 83.67578125 C-5.32478119 82.85554977 -5.61049988 82.0353183 -5.90487671 81.19023132 C-6.50737611 79.45359054 -7.10738194 77.71608295 -7.70507812 75.9777832 C-8.61699709 73.33568678 -9.54644771 70.70018933 -10.4765625 68.06445312 C-11.06099317 66.37277454 -11.64436067 64.6807282 -12.2265625 62.98828125 C-12.50464752 62.20777908 -12.78273254 61.42727692 -13.06924438 60.62312317 C-14.79624246 55.51657973 -15.1772073 51.38258059 -15 46 C-15.80239489 43.3621405 -15.80239489 43.3621405 -17 41.0625 C-19.18119055 36.10873978 -19.34666209 32.37326236 -19 27 C-18.278125 27.53625 -17.55625 28.0725 -16.8125 28.625 C-14.12352312 30.30173724 -14.12352312 30.30173724 -11.484375 29.44140625 C-8.17704255 27.5225294 -7.70052352 25.89033319 -6.4375 22.3125 C-5.82648438 20.58386719 -5.82648438 20.58386719 -5.203125 18.8203125 C-3.19839779 12.62122886 -1.56531677 6.32248058 0 0 Z " fill="#919191" transform="translate(169,204)"/>
<path d="M0 0 C1.73460103 6.70518045 2.13655843 13.28086406 2.25 20.1875 C2.2713501 20.87682617 2.2927002 21.56615234 2.31469727 22.27636719 C2.34481276 26.79916697 1.46574155 29.27487432 -1 33 C-0.835 33.969375 -0.67 34.93875 -0.5 35.9375 C0.15650767 39.9586095 -1.18518548 41.37037095 -3 45 C-4.71885052 52.25858533 -5.30284192 59.66109044 -5.75390625 67.08984375 C-6 70 -6 70 -6.57421875 72.58203125 C-7.04474851 75.25412227 -6.83435353 77.11155529 -6.25 79.75 C-6.09015625 80.52859375 -5.9303125 81.3071875 -5.765625 82.109375 C-5.51296875 82.73328125 -5.2603125 83.3571875 -5 84 C-4.01 84.33 -3.02 84.66 -2 85 C-0.36063247 88.53972889 -1.47044291 91.28354865 -2.5625 94.875 C-3.84096268 99.58573185 -4.37309124 102.50361659 -2 107 C-2.99 107.99 -3.98 108.98 -5 110 C-6.58499816 103.66000735 -7.52723888 97.34200028 -8.21435547 90.84960938 C-8.57571104 87.63931698 -9.07947789 84.75494316 -10.078125 81.67578125 C-11.30729737 76.77471686 -11.05140374 72.32633416 -10.75 67.3125 C-10.6984375 66.33224854 -10.646875 65.35199707 -10.59375 64.34204102 C-10.24623937 58.39042779 -9.6199955 52.60177332 -8.47265625 46.74609375 C-7.73493222 42.4599781 -7.50655772 38.15002243 -7.24609375 33.8125 C-7 31 -7 31 -6.4934082 29.10668945 C-5.96097666 26.83338327 -5.87397494 24.81329557 -5.859375 22.48046875 C-5.84003906 21.62259766 -5.82070312 20.76472656 -5.80078125 19.88085938 C-5.76715225 18.09722907 -5.74871527 16.31324225 -5.74609375 14.52929688 C-5.56350263 8.1049723 -4.18990917 4.8904513 0 0 Z " fill="#B9B9B9" transform="translate(175,194)"/>
<path d="M0 0 C0.66 0 1.32 0 2 0 C2 0.99 2 1.98 2 3 C2.66 3 3.32 3 4 3 C6.31 8.28 8.62 13.56 11 19 C11.66 19 12.32 19 13 19 C13.99 20.98 14.98 22.96 16 25 C16.99 25 17.98 25 19 25 C19.474375 24.525625 19.94875 24.05125 20.4375 23.5625 C22.29553178 21.70446822 23.46819107 21.53705038 26 21 C27.3479743 20.36345658 28.68596724 19.70394612 30 19 C30 19.66 30 20.32 30 21 C30.66 21 31.32 21 32 21 C33.625 23 33.625 23 35 25 C35.66 24.67 36.32 24.34 37 24 C37 23.34 37 22.68 37 22 C37.66 22 38.32 22 39 22 C39.268125 21.319375 39.53625 20.63875 39.8125 19.9375 C41.16053306 16.60289191 42.57536298 13.30256763 44 10 C44.66 10 45.32 10 46 10 C44.49647475 14.97799291 42.41126073 19.44686193 40.0625 24.0625 C39.71509766 24.75666016 39.36769531 25.45082031 39.00976562 26.16601562 C33.82322961 36.45118026 33.82322961 36.45118026 30 39 C27.22265625 39.3359375 27.22265625 39.3359375 24.0625 39.375 C23.02222656 39.40335937 21.98195312 39.43171875 20.91015625 39.4609375 C17.24665387 38.88067806 16.23094254 37.92228957 14 35 C12.65625 32.3359375 12.65625 32.3359375 11.5 29.375 C11.0771875 28.3128125 10.654375 27.250625 10.21875 26.15625 C9.61546875 24.59390625 9.61546875 24.59390625 9 23 C6.61209231 16.84932867 4.0592624 10.95759179 0.953125 5.12890625 C0 3 0 3 0 0 Z " fill="#797979" transform="translate(187,351)"/>
<path d="M0 0 C0.33 0 0.66 0 1 0 C1.08172652 1.72836466 1.13951818 3.45786959 1.1875 5.1875 C1.22230469 6.15042969 1.25710937 7.11335937 1.29296875 8.10546875 C1 11 1 11 -0.48046875 13.23046875 C-2.77873791 17.41934493 -2.53021408 21.41988086 -2.5 26.125 C-2.49863037 27.06408203 -2.49726074 28.00316406 -2.49584961 28.97070312 C-2.35547424 35.32557853 -1.44937099 40.27457951 1.80859375 45.84375 C4.30247636 50.35726869 4.09911102 54.9453381 4 60 C0.24676045 56.24676045 -0.76492455 50.44877474 -2.42333984 45.47119141 C-3.1168688 43.39929174 -3.82927315 41.33455636 -4.54296875 39.26953125 C-4.99076333 37.93789622 -5.43741365 36.60587575 -5.8828125 35.2734375 C-6.28902832 34.07122559 -6.69524414 32.86901367 -7.11376953 31.63037109 C-8.11406374 27.53274715 -8.08791231 24.2023742 -8 20 C-8.80239489 17.3621405 -8.80239489 17.3621405 -10 15.0625 C-12.18119055 10.10873978 -12.34666209 6.37326236 -12 1 C-11.278125 1.53625 -10.55625 2.0725 -9.8125 2.625 C-7.09013276 4.33237656 -7.09013276 4.33237656 -4.3125 3.3125 C-1.90339298 2.08067898 -1.90339298 2.08067898 0 0 Z " fill="#6A6A6A" transform="translate(162,230)"/>
<path d="M0 0 C17.17043879 1.61113043 32.58696455 6.88546581 48.75 12.6875 C51.30730525 13.59286167 53.86651437 14.49277899 56.42578125 15.39257812 C62.62394459 17.57633771 68.81473678 19.77998235 75 22 C75 22.33 75 22.66 75 23 C73.9275 22.835 72.855 22.67 71.75 22.5 C67.06203463 21.88889023 62.45192166 22.00738596 57.734375 22.16015625 C54.9109133 21.99478206 53.45453368 21.29786183 51 20 C50.01 20.495 50.01 20.495 49 21 C48.505 19.02 48.505 19.02 48 17 C47.443125 16.97421875 46.88625 16.9484375 46.3125 16.921875 C41.11595202 16.53564508 37.52871359 15.4389838 32.99609375 12.921875 C29.72447492 11.4109121 26.57215892 11.25515421 23 11 C23 10.34 23 9.68 23 9 C15.35945902 6.25027472 7.71732109 3.52808794 0 1 C0 0.67 0 0.34 0 0 Z " fill="#333333" transform="translate(209,141)"/>
<path d="M0 0 C2.52154637 2.23742847 3.65311596 4.16257532 4.8125 7.3125 C6.51648285 11.75996102 8.27915621 16.17236985 10.125 20.5625 C10.62257812 21.76003906 11.12015625 22.95757812 11.6328125 24.19140625 C12.69746404 27.10225984 12.69746404 27.10225984 15 28 C16.97799703 28.07115097 18.95834145 28.08409082 20.9375 28.0625 C22.52884766 28.04896484 22.52884766 28.04896484 24.15234375 28.03515625 C25.56193359 28.01775391 25.56193359 28.01775391 27 28 C27.99 28 28.98 28 30 28 C27.69 32.62 25.38 37.24 23 42 C22.01 42 21.02 42 20 42 C19.01 38.535 19.01 38.535 18 35 C16.515 35.495 16.515 35.495 15 36 C14.01 35.67 13.02 35.34 12 35 C10.87340858 32.5575498 9.93973315 30.21862311 9.0625 27.6875 C8.67336426 26.60577515 8.67336426 26.60577515 8.27636719 25.50219727 C7.5034927 23.33944162 6.74859042 21.17126701 6 19 C5.60167969 17.85015625 5.20335937 16.7003125 4.79296875 15.515625 C3.0530114 10.38046998 1.4265929 5.23084064 0 0 Z " fill="#4E4E4E" transform="translate(190,361)"/>
<path d="M0 0 C0.66 0 1.32 0 2 0 C2 0.99 2 1.98 2 3 C2.66 3 3.32 3 4 3 C6.31 8.28 8.62 13.56 11 19 C11.66 19 12.32 19 13 19 C13.99 20.98 14.98 22.96 16 25 C16.99 25 17.98 25 19 25 C19.474375 24.525625 19.94875 24.05125 20.4375 23.5625 C22.29553178 21.70446822 23.46819107 21.53705038 26 21 C27.3479743 20.36345658 28.68596724 19.70394612 30 19 C30 19.66 30 20.32 30 21 C30.66 21 31.32 21 32 21 C32.495 22.98 32.495 22.98 33 25 C31.453125 25.0928125 31.453125 25.0928125 29.875 25.1875 C26.12601644 25.9735772 25.47833491 26.19199894 22.9375 28.625 C20 31 20 31 16.875 31.0625 C13.45540347 29.79873607 12.14636377 28.96050175 10 26 C9.23271141 23.95088811 8.61450245 21.87894086 7.9921875 19.78125 C6.49813854 15.59320726 4.41669918 11.70632014 2.33666992 7.78564453 C0.86650698 4.96668293 0 3.23156129 0 0 Z " fill="#AAAAAA" transform="translate(187,351)"/>
<path d="M0 0 C0.33 0 0.66 0 1 0 C1.0270203 2.75006608 1.04684883 5.49986546 1.0625 8.25 C1.07087891 9.02730469 1.07925781 9.80460938 1.08789062 10.60546875 C1.09111328 11.35957031 1.09433594 12.11367187 1.09765625 12.890625 C1.10289307 13.58188477 1.10812988 14.27314453 1.11352539 14.98535156 C0.99407772 17.10509815 0.54346032 18.95225402 0 21 C-0.17479674 22.99767702 -0.31729963 24.99829592 -0.4375 27 C-0.73159233 31.22465967 -1.18611417 35.28366788 -2 39.4375 C-4.1343224 51.67319558 -5.60450632 65.1452497 -1.76953125 77.10546875 C-0.22386429 82.9193734 -0.23719429 89.01288884 0 95 C-2.19107845 91.71338233 -2.44557594 89.92761759 -2.9375 86.0625 C-3.70136603 80.56877548 -4.86075666 75.36810094 -6.4140625 70.046875 C-7.72450526 63.23257266 -6.9562254 56.26655861 -6.16015625 49.421875 C-6.03053749 48.26017792 -6.03053749 48.26017792 -5.89830017 47.07501221 C-5.71652569 45.45469147 -5.53238518 43.83463452 -5.34594727 42.21484375 C-5.06166991 39.7427816 -4.78512231 37.26994515 -4.50976562 34.796875 C-4.33117817 33.21349096 -4.15215695 31.63015577 -3.97265625 30.046875 C-3.89032242 29.31345886 -3.80798859 28.58004272 -3.72315979 27.82440186 C-3.30047656 24.17212507 -2.73339878 20.60080123 -2 17 C-1.98153176 15.18747436 -2.00339633 13.37415588 -2.0625 11.5625 C-2.11433362 7.30062487 -1.7155668 3.96724822 0 0 Z " fill="#ACACAC" transform="translate(169,204)"/>
<path d="M0 0 C1.92653452 6.60526121 2.13775818 13.35390839 2.25 20.1875 C2.2713501 20.87682617 2.2927002 21.56615234 2.31469727 22.27636719 C2.34481276 26.79916697 1.46574155 29.27487432 -1 33 C-0.835 33.969375 -0.67 34.93875 -0.5 35.9375 C0.14679669 39.89912975 -1.02894583 41.58856009 -3 45 C-3.33 45.99 -3.66 46.98 -4 48 C-4.33 48 -4.66 48 -5 48 C-5.0544452 45.79194476 -5.09299283 43.58349446 -5.125 41.375 C-5.14820313 40.14523438 -5.17140625 38.91546875 -5.1953125 37.6484375 C-5.00053424 34.0099796 -4.16485174 31.42368971 -3 28 C-2.7381945 25.44402262 -2.55565057 22.87913261 -2.4375 20.3125 C-2.36438644 18.90098399 -2.29016171 17.4895251 -2.21484375 16.078125 C-2.17987793 15.38912109 -2.14491211 14.70011719 -2.10888672 13.99023438 C-1.95494155 11.17642046 -1.73888168 8.37027854 -1.5 5.5625 C-1.4278125 4.69753906 -1.355625 3.83257812 -1.28125 2.94140625 C-1 1 -1 1 0 0 Z " fill="#CDCDCD" transform="translate(175,194)"/>
<path d="M0 0 C1.175625 0.433125 2.35125 0.86625 3.5625 1.3125 C2.48848892 4.22767292 1.78439824 6.09060176 -0.4375 8.3125 C-1.4275 6.9925 -2.4175 5.6725 -3.4375 4.3125 C-4.5203125 5.2715625 -4.5203125 5.2715625 -5.625 6.25 C-8.51801872 8.37154706 -9.88495089 9.22585246 -13.4375 9.3125 C-17.20556282 7.98259547 -18.97001002 7.22623041 -20.8125 3.625 C-21.01875 2.861875 -21.225 2.09875 -21.4375 1.3125 C-18.4375 3.3125 -18.4375 3.3125 -16.4375 5.3125 C-12.74021138 5.20686318 -10.85600876 3.90707581 -8.125 1.625 C-5.14337009 -0.67361337 -3.64901059 -0.94126422 0 0 Z " fill="#949494" transform="translate(219.4375,375.6875)"/>
<path d="M0 0 C1.15371094 0.40283203 2.30742187 0.80566406 3.49609375 1.22070312 C4.68589844 1.64158203 5.87570313 2.06246094 7.1015625 2.49609375 C8.92107422 3.13321289 8.92107422 3.13321289 10.77734375 3.78320312 C13.76197004 4.82899738 16.74494486 5.87925868 19.7265625 6.93359375 C16.55195251 7.99179708 15.48675261 7.89074696 12.3046875 7.26171875 C11.44359375 7.0915625 10.5825 6.92140625 9.6953125 6.74609375 C8.798125 6.56046875 7.9009375 6.37484375 6.9765625 6.18359375 C6.09484375 6.0134375 5.213125 5.84328125 4.3046875 5.66796875 C-0.91513957 4.61157518 -5.44163318 3.16031743 -10.2734375 0.93359375 C-13.05232363 0.24218853 -13.05232363 0.24218853 -15.2734375 -0.06640625 C-15.2734375 -0.72640625 -15.2734375 -1.38640625 -15.2734375 -2.06640625 C-9.93821085 -3.84481513 -5.14410046 -1.80807491 0 0 Z " fill="#2B2B2B" transform="translate(206.2734375,136.06640625)"/>
<path d="M0 0 C0.66 0 1.32 0 2 0 C0.51991304 5.00113594 -1.6318336 9.32915597 -4.125 13.875 C-4.68380859 14.90753906 -4.68380859 14.90753906 -5.25390625 15.9609375 C-6.16499526 17.64294798 -7.08190315 19.32180436 -8 21 C-8.99 21 -9.98 21 -11 21 C-11.2475 22.051875 -11.495 23.10375 -11.75 24.1875 C-12.76700786 27.8133541 -14.45373429 30.19910772 -17 33 C-17.75 31.4375 -17.75 31.4375 -18 29 C-15.68945126 24.19405861 -12.69309247 20.14526054 -9.3671875 15.9921875 C-7.83042865 13.75291031 -6.99378407 11.52297894 -6 9 C-5.04542117 7.36839651 -4.04494699 5.76275759 -3 4.1875 C-2.484375 3.39730469 -1.96875 2.60710937 -1.4375 1.79296875 C-0.963125 1.20128906 -0.48875 0.60960937 0 0 Z " fill="#C1C1C1" transform="translate(242,340)"/>
<path d="M0 0 C6.03422733 1.27335891 11.95176715 2.78819861 17.875 4.5 C23.81506142 6.18971826 29.68193162 7.61023162 35.78515625 8.59765625 C38.63175106 9.11476254 41.2973398 9.97737182 44 11 C44 11.33 44 11.66 44 12 C42.9275 11.835 41.855 11.67 40.75 11.5 C36.06203463 10.88889023 31.45192166 11.00738596 26.734375 11.16015625 C23.9109133 10.99478206 22.45453368 10.29786183 20 9 C19.01 9.495 19.01 9.495 18 10 C17.67 8.68 17.34 7.36 17 6 C16.443125 5.97421875 15.88625 5.9484375 15.3125 5.921875 C9.31706452 5.47626831 5.23258464 3.94927498 0 1 C0 0.67 0 0.34 0 0 Z " fill="#9C9C9C" transform="translate(240,152)"/>
<path d="M0 0 C3.18253665 1.59126833 3.7594398 4.82500695 5 8 C5.40734375 9.02609375 5.8146875 10.0521875 6.234375 11.109375 C12.33901392 26.69415906 12.33901392 26.69415906 12 35 C9.36076352 32.36076352 8.79642688 29.890724 7.6171875 26.34765625 C7.39805695 25.69171982 7.17892639 25.03578339 6.95315552 24.35997009 C6.49142508 22.9731195 6.03266551 21.58527677 5.57666016 20.1965332 C4.87801482 18.0716693 4.16827136 15.95075496 3.45703125 13.83007812 C3.00974868 12.48199228 2.56311236 11.13369181 2.1171875 9.78515625 C1.71097168 8.55676025 1.30475586 7.32836426 0.88623047 6.06274414 C0 3 0 3 0 0 Z " fill="#505050" transform="translate(154,255)"/>
<path d="M0 0 C0.66 0.33 1.32 0.66 2 1 C1.68889371 3.85432471 1.37615574 6.70845525 1.0625 9.5625 C0.97548828 10.36236328 0.88847656 11.16222656 0.79882812 11.98632812 C0.39647509 15.63730938 -0.03887521 19.26996671 -0.5625 22.90625 C-0.95190257 25.65988245 -1.08407844 28.22541135 -1 31 C-1.66 30.67 -2.32 30.34 -3 30 C-4.23984688 24.11072732 -3.9116195 18.69550929 -3.1875 12.75 C-3.10532227 12.06478271 -3.02314453 11.37956543 -2.93847656 10.67358398 C-2.42157598 6.84861296 -1.61191863 3.50949372 0 0 Z " fill="#D4D4D4" transform="translate(169,243)"/>
<path d="M0 0 C0.33 0 0.66 0 1 0 C1.0270203 2.75006608 1.04684883 5.49986546 1.0625 8.25 C1.07087891 9.02730469 1.07925781 9.80460938 1.08789062 10.60546875 C1.09111328 11.35957031 1.09433594 12.11367187 1.09765625 12.890625 C1.10289307 13.58188477 1.10812988 14.27314453 1.11352539 14.98535156 C0.99401028 17.10629494 0.5412559 18.95022482 0 21 C-0.2198223 23.24707241 -0.40483987 25.49771238 -0.5625 27.75 C-0.64628906 28.92046875 -0.73007813 30.0909375 -0.81640625 31.296875 C-0.87699219 32.18890625 -0.93757812 33.0809375 -1 34 C-1.66 34 -2.32 34 -3 34 C-3.33 34.66 -3.66 35.32 -4 36 C-3.85820962 33.77057252 -3.71140302 31.54146372 -3.5625 29.3125 C-3.48128906 28.07113281 -3.40007812 26.82976562 -3.31640625 25.55078125 C-3 22 -3 22 -2.4609375 19.3828125 C-1.94255465 16.70303673 -1.97359856 14.28752235 -2.0625 11.5625 C-2.11433362 7.30062487 -1.7155668 3.96724822 0 0 Z " fill="#A4A4A4" transform="translate(169,204)"/>
<path d="M0 0 C2.69103631 0.39956895 5.37646987 0.81899103 8.0625 1.25 C8.81466797 1.35957031 9.56683594 1.46914062 10.34179688 1.58203125 C15.70145093 2.46370594 19.41406092 4.08958101 24 7 C28.46962429 9.11719045 33.18066197 10.01303317 38 11 C34.58860997 12.09651823 31.79344419 11.94215473 28.25 11.5625 C27.26515625 11.46066406 26.2803125 11.35882813 25.265625 11.25390625 C24.51796875 11.17011719 23.7703125 11.08632812 23 11 C23 10.34 23 9.68 23 9 C15.35945902 6.25027472 7.71732109 3.52808794 0 1 C0 0.67 0 0.34 0 0 Z " fill="#575757" transform="translate(209,141)"/>
<path d="M0 0 C0.66 0 1.32 0 2 0 C2 0.99 2 1.98 2 3 C2.66 3 3.32 3 4 3 C6.31 8.28 8.62 13.56 11 19 C11.66 19 12.32 19 13 19 C13.66 20.98 14.32 22.96 15 25 C14.01 24.67 13.02 24.34 12 24 C12 23.34 12 22.68 12 22 C11.01 21.67 10.02 21.34 9 21 C7.49307968 18.4317856 6.16071858 15.92504818 4.875 13.25 C4.51535156 12.53328125 4.15570313 11.8165625 3.78515625 11.078125 C1.98513395 7.41066384 0.53233366 4.09735604 0 0 Z " fill="#B7B7B7" transform="translate(187,351)"/>
<path d="M0 0 C0.99 0.33 1.98 0.66 3 1 C4.63936753 4.53972889 3.52955709 7.28354865 2.4375 10.875 C1.15903732 15.58573185 0.62690876 18.50361659 3 23 C2.01 23.99 1.02 24.98 0 26 C-2.59134645 18.22596065 -1.30821132 8.01279431 0 0 Z " fill="#CECECE" transform="translate(170,278)"/>
<path d="M0 0 C9.1268659 -0.78982493 17.29969595 1.5820495 26 4 C25.34 4.66 24.68 5.32 24 6 C21.3984375 5.9765625 21.3984375 5.9765625 18.375 5.625 C17.37210937 5.51414063 16.36921875 5.40328125 15.3359375 5.2890625 C14.17964844 5.14597656 14.17964844 5.14597656 13 5 C13 4.34 13 3.68 13 3 C12.22914063 2.95101562 11.45828125 2.90203125 10.6640625 2.8515625 C9.15972656 2.73941406 9.15972656 2.73941406 7.625 2.625 C6.12839844 2.52058594 6.12839844 2.52058594 4.6015625 2.4140625 C2 2 2 2 0 0 Z " fill="#CACACA" transform="translate(266,162)"/>
<path d="M0 0 C0.33 0.66 0.66 1.32 1 2 C1.66 2 2.32 2 3 2 C3 2.66 3 3.32 3 4 C1.96875 4.2475 0.9375 4.495 -0.125 4.75 C-4.00600143 5.84079063 -6.76009641 7.62933884 -10 10 C-11.32 9.34 -12.64 8.68 -14 8 C-13.67 7.34 -13.34 6.68 -13 6 C-12.01 6 -11.02 6 -10 6 C-9.525625 5.525625 -9.05125 5.05125 -8.5625 4.5625 C-6.71542728 2.71542728 -5.50770093 2.54855958 -3 2 C-2.01 1.34 -1.02 0.68 0 0 Z " fill="#BABABA" transform="translate(216,370)"/>
<path d="M0 0 C1.99750688 7.23896492 0.92555403 14.64332979 0.125 22 C0.04660889 22.76658936 -0.03178223 23.53317871 -0.11254883 24.32299805 C-0.33506176 26.22534492 -0.65922911 28.1152425 -1 30 C-1.66 30.33 -2.32 30.66 -3 31 C-1.5664488 1.5664488 -1.5664488 1.5664488 0 0 Z " fill="#CBCBCB" transform="translate(175,194)"/>
<path d="M0 0 C0.66 0 1.32 0 2 0 C1.60404157 1.48484412 1.18249294 2.9628831 0.75 4.4375 C0.51796875 5.26121094 0.2859375 6.08492188 0.046875 6.93359375 C-1 9 -1 9 -3.109375 9.78515625 C-3.73328125 9.85605469 -4.3571875 9.92695313 -5 10 C-6.25664978 7.09399739 -7 5.20395416 -7 2 C-2.25 0.875 -2.25 0.875 0 2 C0 1.34 0 0.68 0 0 Z " fill="#262626" transform="translate(215,393)"/>
<path d="M0 0 C0.99 0 1.98 0 3 0 C5.01290353 8.30566989 5.56891497 16.49174287 6 25 C3.79182512 21.68773768 3.51644906 19.77603486 3 15.875 C2.24148129 10.49914915 1.25304824 5.28070329 0 0 Z " fill="#8C8C8C" transform="translate(163,274)"/>
<path d="M0 0 C9.14743526 0.20535059 16.57989239 2.66883334 25 6 C25 6.33 25 6.66 25 7 C16.20753786 6.52897524 8.29384797 3.75783166 0 1 C0 0.67 0 0.34 0 0 Z " fill="#515151" transform="translate(247,153)"/>
<path d="M0 0 C0.33 0 0.66 0 1 0 C1.08112454 2.58396679 1.14054748 5.16537568 1.1875 7.75 C1.22520508 8.84441406 1.22520508 8.84441406 1.26367188 9.9609375 C1.30981636 13.34486604 1.25324128 15.57858557 -0.51171875 18.515625 C-1.00285156 19.00546875 -1.49398437 19.4953125 -2 20 C-2.66 19.67 -3.32 19.34 -4 19 C-3.690625 18.071875 -3.38125 17.14375 -3.0625 16.1875 C-1.8203522 11.92745791 -1.54067839 7.67057022 -1.24609375 3.2578125 C-1 1 -1 1 0 0 Z " fill="#D6D6D6" transform="translate(176,206)"/>
<path d="M0 0 C-1.19015035 5.058139 -4.22898087 6.90886788 -8.3203125 9.66796875 C-8.87460937 10.10753906 -9.42890625 10.54710937 -10 11 C-10 11.66 -10 12.32 -10 13 C-11.98 13.99 -11.98 13.99 -14 15 C-14 12 -14 12 -11.4453125 9.08203125 C-10.34630754 7.98435681 -9.23915907 6.89478953 -8.125 5.8125 C-7.56941406 5.25369141 -7.01382812 4.69488281 -6.44140625 4.11914062 C-2.26694139 0 -2.26694139 0 0 0 Z " fill="#101010" transform="translate(399,405)"/>
<path d="M0 0 C0.33 0.66 0.66 1.32 1 2 C0.67 2.99 0.34 3.98 0 5 C-0.66 5 -1.32 5 -2 5 C-2.2475 6.051875 -2.495 7.10375 -2.75 8.1875 C-3.76700786 11.8133541 -5.45373429 14.19910772 -8 17 C-8.75 15.4375 -8.75 15.4375 -9 13 C-6.61458496 8.04567646 -3.61601421 4.1182384 0 0 Z " fill="#C8C8C8" transform="translate(233,356)"/>
<path d="M0 0 C0.99 0.66 1.98 1.32 3 2 C2.071875 2.433125 1.14375 2.86625 0.1875 3.3125 C-2.94093002 4.70374829 -2.94093002 4.70374829 -4.375 6.6875 C-6.80917673 8.65356582 -9.07086944 8.46653533 -12.125 8.37109375 C-14 8 -14 8 -16 6 C-16.33 5.34 -16.66 4.68 -17 4 C-16.67 3.34 -16.34 2.68 -16 2 C-14.66666667 3.33333333 -13.33333333 4.66666667 -12 6 C-7.05971108 5.85884889 -3.7372288 2.9187003 0 0 Z " fill="#9A9A9A" transform="translate(215,375)"/>
<path d="M0 0 C0 0.66 0 1.32 0 2 C-5.52677733 2.19392201 -9.75614911 1.7479503 -15 0 C-15 -0.66 -15 -1.32 -15 -2 C-9.74237633 -3.75254122 -5.07098902 -1.81106751 0 0 Z " fill="#151515" transform="translate(206,136)"/>
<path d="M0 0 C2.57138678 7.71416033 1.07790148 17.05047656 0 25 C-0.33 25 -0.66 25 -1 25 C-2.3654267 7.69059081 -2.3654267 7.69059081 -1 1 C-0.67 0.67 -0.34 0.34 0 0 Z " fill="#C0C0C0" transform="translate(173,197)"/>
<path d="M0 0 C0.66 0 1.32 0 2 0 C0.45454854 5.47932789 -2.15543212 10.11429181 -5 15 C-6.32 15 -7.64 15 -9 15 C-8.34 14.67 -7.68 14.34 -7 14 C-7 13.34 -7 12.68 -7 12 C-6.34 12 -5.68 12 -5 12 C-4.731875 11.319375 -4.46375 10.63875 -4.1875 9.9375 C-2.83946694 6.60289191 -1.42463702 3.30256763 0 0 Z " fill="#919191" transform="translate(231,361)"/>
<path d="M0 0 C4 4 4 4 4.171875 7.671875 C4.05291406 9.03331691 3.91161343 10.39296025 3.75 11.75 C3.68425781 12.44738281 3.61851562 13.14476562 3.55078125 13.86328125 C3.38640673 15.57747263 3.19577346 17.28911023 3 19 C2.67 19 2.34 19 2 19 C1.34 12.73 0.68 6.46 0 0 Z " fill="#B2B2B2" transform="translate(166,276)"/>
<path d="M0 0 C1.1533417 3.46002511 0.76195086 4.49502605 0 8 C-0.37757618 10.99543772 -0.69246568 13.99663291 -1 17 C-1.66 17 -2.32 17 -3 17 C-3.55353075 5.47835991 -3.55353075 5.47835991 0 0 Z " fill="#8C8C8C" transform="translate(165,221)"/>
<path d="M0 0 C6.73862227 1.43609983 13.36629557 3.14008287 20 5 C20 5.33 20 5.66 20 6 C12.31345427 5.74378181 6.64783942 4.96313504 0 1 C0 0.67 0 0.34 0 0 Z " fill="#838383" transform="translate(240,152)"/>
<path d="M0 0 C0.33 0 0.66 0 1 0 C0.95875 1.051875 0.9175 2.10375 0.875 3.1875 C0.99147875 6.74010173 1.47208068 8.84866641 3 12 C2.01 12.99 1.02 13.98 0 15 C-1.03876383 11.88370851 -1.13361625 9.6405571 -1.125 6.375 C-1.12757813 5.39273437 -1.13015625 4.41046875 -1.1328125 3.3984375 C-1 1 -1 1 0 0 Z " fill="#C7C7C7" transform="translate(170,289)"/>
<path d="M0 0 C0.99 0.33 1.98 0.66 3 1 C5.05893621 1.22325814 7.12233653 1.40705759 9.1875 1.5625 C10.27417969 1.64628906 11.36085937 1.73007812 12.48046875 1.81640625 C13.72763672 1.90728516 13.72763672 1.90728516 15 2 C14.67 2.66 14.34 3.32 14 4 C10.04 4 6.08 4 2 4 C1.34 2.68 0.68 1.36 0 0 Z " fill="#515151" transform="translate(202,388)"/>
<path d="M0 0 C0.33 0 0.66 0 1 0 C1.33 6.6 1.66 13.2 2 20 C1.34 19.67 0.68 19.34 0 19 C-1.14175963 12.46083122 -0.88950071 6.55493602 0 0 Z " fill="#CBCBCB" transform="translate(166,254)"/>
<path d="M0 0 C1.65 0.33 3.3 0.66 5 1 C4.67 1.99 4.34 2.98 4 4 C2.68 4 1.36 4 0 4 C0 4.66 0 5.32 0 6 C0.66 6.33 1.32 6.66 2 7 C0.68 7.33 -0.64 7.66 -2 8 C-1.34 5.36 -0.68 2.72 0 0 Z " fill="#989898" transform="translate(196,164)"/>
<path d="M0 0 C0.67546875 0.08378906 1.3509375 0.16757812 2.046875 0.25390625 C2.93890625 0.35574219 3.8309375 0.45757812 4.75 0.5625 C6.07257813 0.71912109 6.07257813 0.71912109 7.421875 0.87890625 C9.96488306 1.13047258 9.96488306 1.13047258 12.203125 0.40234375 C12.79609375 0.26957031 13.3890625 0.13679688 14 0 C14.66 0.66 15.32 1.32 16 2 C14.19728218 3.80271782 11.55591251 3.21502284 9.125 3.25 C7.52011719 3.28867187 7.52011719 3.28867187 5.8828125 3.328125 C3 3 3 3 1.1171875 1.484375 C0.74851563 0.99453125 0.37984375 0.5046875 0 0 Z " fill="#636363" transform="translate(202,387)"/>
<path d="M0 0 C-0.33 4.95 -0.66 9.9 -1 15 C-1.33 15 -1.66 15 -2 15 C-2.41659944 13.06685873 -2.80764837 11.12819653 -3.1875 9.1875 C-3.40792969 8.10855469 -3.62835938 7.02960938 -3.85546875 5.91796875 C-4 3 -4 3 -2.61328125 1.11328125 C-1 0 -1 0 0 0 Z " fill="#747474" transform="translate(160,248)"/>
<path d="M0 0 C0.66 0 1.32 0 2 0 C2.69699552 1.45381897 3.38233866 2.91322953 4.0625 4.375 C4.63677734 5.59316406 4.63677734 5.59316406 5.22265625 6.8359375 C5.47917969 7.55007813 5.73570312 8.26421875 6 9 C5.67 9.66 5.34 10.32 5 11 C2 9 2 9 1.26953125 6.8359375 C1.11871094 6.02382813 0.96789062 5.21171875 0.8125 4.375 C0.65394531 3.55773437 0.49539062 2.74046875 0.33203125 1.8984375 C0.22246094 1.27195312 0.11289063 0.64546875 0 0 Z " fill="#474747" transform="translate(196,377)"/>
<path d="M0 0 C0 3.44360632 -0.79591532 4.74795392 -2.5 7.6875 C-2.9640625 8.49574219 -3.428125 9.30398438 -3.90625 10.13671875 C-4.44765625 11.05904297 -4.44765625 11.05904297 -5 12 C-5.66 11.67 -6.32 11.34 -7 11 C-6.21572648 9.35063087 -5.42234741 7.70558873 -4.625 6.0625 C-4.18414062 5.14597656 -3.74328125 4.22945313 -3.2890625 3.28515625 C-2 1 -2 1 0 0 Z " fill="#626262" transform="translate(225,376)"/>
<path d="M0 0 C6.625 0.75 6.625 0.75 10 3 C6.6875 3.6875 6.6875 3.6875 3 4 C1.0625 2.625 1.0625 2.625 0 1 C0 0.67 0 0.34 0 0 Z " fill="#BDBDBD" transform="translate(282,164)"/>
<path d="M0 0 C3 1 3 1 4.75 3.9375 C5.1625 4.948125 5.575 5.95875 6 7 C5.67 7.66 5.34 8.32 5 9 C4.34 9 3.68 9 3 9 C2.01 6.03 1.02 3.06 0 0 Z " fill="#212121" transform="translate(199,387)"/>
<path d="M0 0 C-0.33 0.66 -0.66 1.32 -1 2 C-7.0546875 2.1953125 -7.0546875 2.1953125 -9 2 C-9.66 1.34 -10.32 0.68 -11 0 C-7.01803543 -1.05404945 -4.01804691 -0.84098656 0 0 Z " fill="#242424" transform="translate(212,138)"/>
<path d="M0 0 C2.61273988 1.30636994 2.97236124 2.28409758 4 5 C4.125 8.25 4.125 8.25 4 11 C1.6870518 8.6870518 1.50419025 7.52095125 0.875 4.375 C0.70742187 3.55773437 0.53984375 2.74046875 0.3671875 1.8984375 C0.24601563 1.27195312 0.12484375 0.64546875 0 0 Z " fill="#292929" transform="translate(154,255)"/>
<path d="M0 0 C7.625 1.875 7.625 1.875 11 3 C8.3125 4.1875 8.3125 4.1875 5 5 C2.125 3.75 2.125 3.75 0 2 C0 1.34 0 0.68 0 0 Z " fill="#7F7F7F" transform="translate(200,382)"/>
<path d="M0 0 C1.875 0.625 1.875 0.625 4 2 C5.25 5.125 5.25 5.125 6 8 C5.01 7.67 4.02 7.34 3 7 C3 6.34 3 5.68 3 5 C2.01 4.67 1.02 4.34 0 4 C0 2.68 0 1.36 0 0 Z " fill="#C5C5C5" transform="translate(196,368)"/>
<path d="M0 0 C2 1.5625 2 1.5625 4 4 C4.25 7.75 4.25 7.75 4 11 C1.6870518 8.6870518 1.50419025 7.52095125 0.875 4.375 C0.70742187 3.55773437 0.53984375 2.74046875 0.3671875 1.8984375 C0.24601563 1.27195312 0.12484375 0.64546875 0 0 Z " fill="#444444" transform="translate(162,279)"/>
<path d="M0 0 C3.3 0.33 6.6 0.66 10 1 C10 1.33 10 1.66 10 2 C8.329375 2.2165625 8.329375 2.2165625 6.625 2.4375 C3.17857953 2.78372035 3.17857953 2.78372035 1 4 C0.67 2.68 0.34 1.36 0 0 Z " fill="#959595" transform="translate(257,158)"/>
<path d="M0 0 C3.36720387 1.39332574 4.9859524 2.9789286 7 6 C3.64404172 5.40072174 1.62198774 4.15377564 -1 2 C-0.67 1.34 -0.34 0.68 0 0 Z " fill="#2A2A2A" transform="translate(257,315)"/>
<path d="M0 0 C-1.39332574 3.36720387 -2.9789286 4.9859524 -6 7 C-5.6875 4.625 -5.6875 4.625 -5 2 C-2 0 -2 0 0 0 Z " fill="#E6E6E6" transform="translate(384,417)"/>
<path d="M0 0 C0.66 0.33 1.32 0.66 2 1 C1.67 2.98 1.34 4.96 1 7 C0.34 7 -0.32 7 -1 7 C-1.33 7.66 -1.66 8.32 -2 9 C-1.125 2.25 -1.125 2.25 0 0 Z " fill="#CECECE" transform="translate(169,243)"/>
<path d="M0 0 C2.475 0.99 2.475 0.99 5 2 C4.34 3.32 3.68 4.64 3 6 C1.68 4.35 0.36 2.7 -1 1 C-0.67 0.67 -0.34 0.34 0 0 Z " fill="#0E0E0E" transform="translate(347,288)"/>
<path d="" fill="#161616" transform="translate(0,0)"/>
</svg>
